<?xml version="1.0" encoding="UTF-8"?>
<svg width="31.6665833px" height="31.6665833px" viewBox="0 0 31.6665833 31.6665833" version="1.1" xmlns="http://www.w3.org/2000/svg" xmlns:xlink="http://www.w3.org/1999/xlink">
    <title>A551818C-B1C7-42FB-9343-F066580E916A</title>
    <g id="UI-KIt" stroke="none" stroke-width="1" fill="none" fill-rule="evenodd">
        <g id="Branch-/-Preferred-Branch" transform="translate(-333.000000, -3231.000000)" fill="#FFFFFF" fill-rule="nonzero">
            <g id="Branch/header" transform="translate(0.000000, 3009.000000)">
                <g id="Group-7" transform="translate(154.000000, 213.000000)">
                    <g id="check_circle_FILL0_wght0_GRAD0_opszNaN-(1)" transform="translate(179.000000, 9.000000)">
                        <path d="M13.4978811,19.4353655 L9.61872469,15.5562091 C9.38122531,15.3187097 9.0909483,15.19996 8.74789365,15.19996 C8.40483899,15.19996 8.10136757,15.3319041 7.83747937,15.5957923 C7.57359118,15.8596805 7.44164708,16.1631519 7.44164708,16.5062066 C7.44164708,16.8492612 7.57359118,17.1395382 7.83747937,17.3770376 L12.6666333,22.2061916 C12.9041327,22.4436909 13.1812153,22.5624406 13.4978811,22.5624406 C13.814547,22.5624406 14.0916296,22.4436909 14.329129,22.2061916 L23.829104,12.7062166 C24.0666033,12.4687172 24.1787558,12.1784402 24.1655614,11.8353855 C24.152367,11.4923309 24.0270201,11.2020539 23.7895207,10.9645545 C23.5520214,10.7006663 23.2551471,10.5687222 22.8988981,10.5687222 C22.542649,10.5687222 22.2325804,10.7006663 21.9686922,10.9645545 L13.4978811,19.4353655 Z M15.8332917,31.6665833 C13.590242,31.6665833 11.5055253,31.2641538 9.57914146,30.4592948 C7.65275764,29.6544359 5.9770676,28.5395082 4.55207135,27.114512 C3.1270751,25.6895157 2.01214748,24.0138257 1.20728849,22.0874419 C0.402429497,20.1610581 0,18.0763413 0,15.8332917 C0,13.6166308 0.402429497,11.5451085 1.20728849,9.61872469 C2.01214748,7.69234087 3.1270751,6.01665083 4.55207135,4.59165458 C5.9770676,3.16665833 7.65275764,2.04513351 9.57914146,1.2270801 C11.5055253,0.409026701 13.590242,0 15.8332917,0 C18.0499525,0 20.1214748,0.409026701 22.0478586,1.2270801 C23.9742425,2.04513351 25.6499325,3.16665833 27.0749287,4.59165458 C28.499925,6.01665083 29.6214498,7.69234087 30.4395032,9.61872469 C31.2575566,11.5451085 31.6665833,13.6166308 31.6665833,15.8332917 C31.6665833,18.0763413 31.2575566,20.1610581 30.4395032,22.0874419 C29.6214498,24.0138257 28.499925,25.6895157 27.0749287,27.114512 C25.6499325,28.5395082 23.9742425,29.6544359 22.0478586,30.4592948 C20.1214748,31.2641538 18.0499525,31.6665833 15.8332917,31.6665833 Z M15.8332917,29.2915896 C19.6596705,29.2915896 22.8593148,28.0051346 25.4322247,25.4322247 C28.0051346,22.8593148 29.2915896,19.6596705 29.2915896,15.8332917 C29.2915896,12.0069128 28.0051346,8.80726849 25.4322247,6.23435859 C22.8593148,3.6614487 19.6596705,2.37499375 15.8332917,2.37499375 C12.0069128,2.37499375 8.80726849,3.6614487 6.23435859,6.23435859 C3.6614487,8.80726849 2.37499375,12.0069128 2.37499375,15.8332917 C2.37499375,19.6596705 3.6614487,22.8593148 6.23435859,25.4322247 C8.80726849,28.0051346 12.0069128,29.2915896 15.8332917,29.2915896 Z" id="shape"></path>
                    </g>
                </g>
            </g>
        </g>
    </g>
</svg>